<svg width="416" height="43" viewBox="0 0 416 43" fill="none" xmlns="http://www.w3.org/2000/svg">
<path d="M61.6129 12.5898H63.756V25.4051C63.756 25.9177 63.756 26.174 63.9941 26.4303C64.2322 26.6866 64.4703 26.6866 64.9465 26.6866C65.1846 26.6866 65.1846 26.6866 65.4227 26.6866C65.6609 26.6866 65.899 26.6866 65.899 26.4303L66.1371 28.2245C65.899 28.4808 65.4227 28.4808 64.9465 28.7371C64.4703 28.7371 63.9941 28.9934 63.756 28.9934C63.0416 28.9934 62.3273 28.7371 61.8511 28.2245C61.3748 27.7119 61.1367 27.1993 61.1367 26.174V12.5898H61.6129Z" fill="#15172A"/>
<path d="M72.5643 28.7373C71.6119 28.7373 70.8975 28.481 70.1832 28.2247C69.4688 27.9684 68.9926 27.4558 68.5164 26.9432C68.0402 26.4306 67.5639 25.6616 67.3258 25.149C67.0877 24.3801 66.8496 23.6112 66.8496 22.8423C66.8496 22.0734 67.0877 21.3045 67.3258 20.5355C67.5639 19.7666 68.0402 19.254 68.5164 18.7414C68.9926 18.2288 69.4688 17.7162 70.1832 17.4599C70.8975 17.2036 71.6119 16.9473 72.5643 16.9473C73.2786 16.9473 74.2311 17.2036 74.9454 17.4599C75.4217 17.7162 76.136 18.2288 76.6122 18.7414C77.0884 19.254 77.5647 20.0229 77.8028 20.5355C78.0409 21.3045 78.279 22.0734 78.279 22.8423C78.279 23.6112 78.0409 24.3801 77.8028 25.149C77.5647 25.918 77.0884 26.4306 76.6122 26.9432C76.136 27.4558 75.6598 27.9684 74.9454 28.2247C74.2311 28.7373 73.2786 28.7373 72.5643 28.7373ZM69.4688 22.8423C69.4688 23.3549 69.4688 23.8675 69.707 24.3801C69.9451 24.8927 70.1832 25.149 70.4213 25.6616C70.6594 25.918 71.1356 26.1743 71.3737 26.4306C71.85 26.6869 72.0881 26.6869 72.5643 26.6869C73.0405 26.6869 73.5168 26.6869 73.7549 26.4306C74.2311 26.1743 74.4692 25.918 74.7073 25.6616C74.9454 25.4053 75.1835 24.8927 75.4217 24.3801C75.6598 23.8675 75.6598 23.3549 75.6598 22.8423C75.6598 22.3297 75.6598 21.8171 75.4217 21.3045C75.1835 20.7918 74.9454 20.5355 74.7073 20.0229C74.4692 19.7666 73.993 19.5103 73.7549 19.254C73.2786 18.9977 73.0405 18.9977 72.5643 18.9977C72.0881 18.9977 71.6119 18.9977 71.3737 19.254C70.8975 19.5103 70.6594 19.7666 70.4213 20.0229C70.1832 20.2792 69.707 20.7918 69.707 21.3045C69.4688 21.8171 69.4688 22.3297 69.4688 22.8423Z" fill="#15172A"/>
<path d="M84.9471 28.7373C83.9947 28.7373 83.2803 28.481 82.566 28.2247C81.8517 27.9684 81.3754 27.4558 80.8992 26.9432C80.423 26.4306 79.9468 25.6616 79.7086 25.149C79.4705 24.3801 79.2324 23.6112 79.2324 22.8423C79.2324 22.0734 79.4705 21.3045 79.7086 20.5355C79.9468 19.7666 80.423 19.254 80.8992 18.7414C81.3754 18.2288 81.8517 17.7162 82.566 17.4599C83.2803 17.2036 83.9947 16.9473 84.9471 16.9473C85.6615 16.9473 86.6139 17.2036 87.3283 17.4599C88.0426 17.7162 88.5188 18.2288 88.995 18.7414C89.4713 19.254 89.9475 20.0229 90.1856 20.5355C90.1856 21.3045 90.4237 22.0734 90.4237 22.8423C90.4237 23.6112 90.1856 24.3801 89.9475 25.149C89.7094 25.918 89.2332 26.4306 88.7569 26.9432C88.2807 27.4558 87.8045 27.9684 87.0901 28.2247C86.3758 28.7373 85.6615 28.7373 84.9471 28.7373ZM81.6135 22.8423C81.6135 23.3549 81.6136 23.8675 81.8517 24.3801C82.0898 24.8927 82.3279 25.149 82.566 25.6616C82.8041 25.918 83.2803 26.1743 83.5184 26.4306C83.9947 26.6869 84.2328 26.6869 84.709 26.6869C85.1852 26.6869 85.6615 26.6869 85.8996 26.4306C86.3758 26.1743 86.6139 25.918 86.852 25.6616C87.0901 25.4053 87.3283 24.8927 87.5664 24.3801C88.0426 23.8675 88.0426 23.3549 88.0426 22.8423C88.0426 22.3297 88.0426 21.8171 87.8045 21.3045C87.5664 20.7918 87.3282 20.5355 87.0901 20.0229C86.852 19.7666 86.3758 19.5103 86.1377 19.254C85.6615 18.9977 85.4234 18.9977 84.9471 18.9977C84.4709 18.9977 83.9947 18.9977 83.7566 19.254C83.5185 19.5103 83.0422 19.7666 82.8041 20.0229C82.566 20.2792 82.3279 20.7918 82.0898 21.3045C81.8517 21.8171 81.6135 22.3297 81.6135 22.8423Z" fill="#15172A"/>
<path d="M98.5191 28.7369C97.5666 28.7369 96.8523 28.4806 96.1379 27.968C95.4236 27.4553 94.9474 26.9427 94.4711 26.1738V33.0941H92.3281V17.2031H94.233V19.2536C94.7092 18.4847 95.1855 17.972 95.8998 17.7157C96.6142 17.2031 97.3285 17.2031 98.0428 17.2031C98.7572 17.2031 99.4715 17.4594 100.186 17.7157C100.9 17.972 101.376 18.4847 101.853 18.9973C102.329 19.5099 102.567 20.2788 102.805 20.7914C103.043 21.304 103.281 22.3292 103.281 23.0981C103.281 23.8671 103.281 24.636 103.043 25.4049C102.805 26.1738 102.329 26.4301 101.853 27.199C101.376 27.7116 100.9 28.2243 100.424 28.4806C99.9477 28.7369 99.2334 28.7369 98.5191 28.7369ZM97.8047 26.6864C98.2809 26.6864 98.7572 26.6864 98.9953 26.4301C99.4715 26.1738 99.7096 25.9175 99.9477 25.6612C100.186 25.4049 100.424 24.8923 100.662 24.3797C100.9 23.8671 100.9 23.3545 100.9 22.8418C100.9 22.3292 100.9 21.8166 100.662 21.304C100.424 20.7914 100.186 20.5351 99.9477 20.0225C99.7096 19.5099 99.2334 19.5099 98.9953 19.2536C98.7572 18.9973 98.0428 18.9973 97.5666 18.9973C97.3285 18.9973 97.0904 18.9973 96.6141 19.2536C96.1379 19.5099 95.8998 19.5099 95.6617 19.7662C95.4236 20.0225 95.1855 20.2788 94.9474 20.5351C94.7093 20.7914 94.7093 21.0477 94.4711 21.304V24.3797C94.7093 24.636 94.7093 25.1486 94.9474 25.4049C95.1855 25.6612 95.4236 25.9175 95.6617 26.1738C95.8998 26.4301 96.1379 26.6864 96.6141 26.6864C97.0904 26.6864 97.5666 26.6864 97.8047 26.6864Z" fill="#15172A"/>
<path d="M109.235 28.7373C108.282 28.7373 107.568 28.481 106.616 28.2247C105.663 27.9684 104.949 27.4558 104.473 26.9432L105.425 25.4053C106.139 25.918 106.616 26.1743 107.33 26.4306C108.044 26.6869 108.521 26.9432 109.235 26.9432C109.949 26.9432 110.425 26.6869 110.902 26.4306C111.378 26.1743 111.378 25.6616 111.378 25.149C111.378 24.6364 111.14 24.3801 110.664 24.1238C110.187 24.1238 109.473 23.8675 108.521 23.6112C107.806 23.3549 107.33 23.3549 106.854 23.0986C106.378 22.8423 105.901 22.8423 105.663 22.586C105.425 22.3297 105.187 22.0734 104.949 21.8171C104.711 21.5608 104.711 21.0482 104.711 20.7918C104.711 20.2792 104.711 19.7666 104.949 19.254C105.187 18.7414 105.425 18.4851 105.901 17.9725C106.378 17.7162 106.616 17.4599 107.33 17.2036C107.806 16.9473 108.282 16.9473 108.997 16.9473C109.711 16.9473 110.664 17.2036 111.14 17.4599C111.854 17.7162 112.568 18.2288 113.045 18.4851L112.092 20.0229C111.14 19.254 109.949 18.7414 108.997 18.7414C108.521 18.7414 108.044 18.9977 107.568 19.254C107.092 19.254 107.092 19.7666 107.092 20.2792C107.092 20.5355 107.092 20.7918 107.33 20.7918C107.33 21.0482 107.568 21.0482 107.806 21.3045C108.044 21.3045 108.282 21.5608 108.521 21.5608C108.759 21.5608 109.235 21.8171 109.711 21.8171C110.425 22.0734 111.14 22.0734 111.616 22.3297C112.092 22.586 112.568 22.8423 112.807 23.0986C113.045 23.3549 113.521 23.6112 113.521 24.1238C113.759 24.3801 113.759 24.8927 113.759 25.4053C113.759 26.4306 113.283 27.4558 112.568 27.9684C111.616 28.481 110.425 28.7373 109.235 28.7373Z" fill="#15172A"/>
<path d="M121.378 27.9683C121.14 28.2246 120.664 28.2246 120.188 28.4809C119.711 28.7372 119.235 28.7372 118.521 28.7372C118.283 28.7372 117.806 28.7372 117.568 28.4809C117.33 28.4809 117.092 28.2246 116.854 27.9683C116.616 27.712 116.378 27.4557 116.378 27.1994C116.14 26.9431 116.14 26.4305 116.14 25.9179V18.9976H114.711V17.2035H116.14V13.3589H118.283V17.2035H120.664V18.9976H118.283V25.4052C118.283 25.9179 118.521 26.1742 118.759 26.1742C118.997 26.4305 119.235 26.4305 119.473 26.4305C119.711 26.4305 120.188 26.4305 120.426 26.1742C120.664 26.1742 120.902 25.9179 121.14 25.9179L121.378 27.9683Z" fill="#15172A"/>
<path d="M126.378 28.7369C125.188 28.7369 124.473 28.2243 123.759 27.4553C123.283 26.6864 122.807 25.4049 122.807 23.8671V17.2031H124.95V23.8671C124.95 25.9175 125.664 26.9427 127.093 26.9427C127.807 26.9427 128.283 26.6864 128.998 26.4301C129.474 25.9175 129.95 25.4049 130.426 24.636V17.2031H132.569V25.9175C132.569 26.1738 132.569 26.4301 132.807 26.4301C132.807 26.4301 133.045 26.6864 133.284 26.6864V28.7369C133.045 28.7369 132.807 28.7369 132.807 28.7369C132.569 28.7369 132.569 28.7369 132.331 28.7369C131.855 28.7369 131.617 28.7369 131.379 28.4806C131.141 28.2243 130.902 27.9679 130.902 27.4553V26.4301C130.426 27.199 129.712 27.9679 128.998 28.2243C128.045 28.7369 127.093 28.7369 126.378 28.7369Z" fill="#15172A"/>
<path d="M139.951 28.7371C139.237 28.7371 138.523 28.4808 138.046 28.2245C137.332 27.9682 136.856 27.4556 136.38 26.9429C135.665 26.4303 135.427 25.9177 135.189 25.1488C134.951 24.3799 134.713 23.611 134.713 22.8421C134.713 22.0731 134.713 21.3042 135.189 20.5353C135.427 19.7664 135.665 19.2538 136.142 18.7412C136.618 18.2286 137.094 17.716 137.57 17.4596C138.046 17.2033 138.761 16.947 139.475 16.947C140.428 16.947 141.142 17.2033 141.856 17.716C142.571 18.2286 143.047 18.7412 143.285 19.5101V12.5898H145.428V25.9177C145.428 26.174 145.428 26.4303 145.666 26.4303C145.666 26.4303 145.904 26.6866 146.142 26.6866V28.7371C145.904 28.7371 145.666 28.7371 145.666 28.7371C145.428 28.7371 145.428 28.7371 145.19 28.7371C144.714 28.7371 144.476 28.7371 143.999 28.4808C143.761 28.2245 143.523 27.9682 143.523 27.4556V26.6866C143.047 27.4556 142.571 27.9682 141.856 28.4808C141.38 28.7371 140.666 28.7371 139.951 28.7371ZM140.428 26.6866C140.666 26.6866 141.142 26.6866 141.38 26.4303C141.618 26.4303 142.094 26.174 142.332 25.9177C142.571 25.6614 142.809 25.4051 143.047 25.1488C143.285 24.8925 143.285 24.6362 143.523 24.1236V21.5605C143.285 21.3042 143.285 20.7916 143.047 20.5353C142.809 20.279 142.571 20.0227 142.332 19.7664C142.094 19.5101 141.856 19.2538 141.38 19.2538C141.142 19.2538 140.666 18.9975 140.428 18.9975C139.951 18.9975 139.475 18.9975 139.237 19.2538C138.999 19.5101 138.285 19.7664 138.046 20.279C137.808 20.5353 137.57 21.0479 137.332 21.5605C137.094 22.0731 137.094 22.5858 137.094 23.0984C137.094 23.611 137.094 24.1236 137.332 24.6362C137.57 25.1488 137.808 25.4051 138.046 25.9177C138.285 26.174 138.761 26.4303 138.999 26.6866C139.475 26.6866 139.951 26.6866 140.428 26.6866Z" fill="#15172A"/>
<path d="M148.523 15.1529V12.5898H150.666V15.1529H148.523ZM148.523 28.7371V17.2033H150.666V28.7371H148.523Z" fill="#15172A"/>
<path d="M158.287 28.7373C157.335 28.7373 156.62 28.481 155.906 28.2247C155.192 27.9684 154.715 27.4558 154.239 26.9432C153.763 26.4306 153.287 25.6616 153.049 25.149C152.81 24.3801 152.572 23.6112 152.572 22.8423C152.572 22.0734 152.81 21.3045 153.049 20.5355C153.287 19.7666 153.763 19.254 154.239 18.7414C154.715 18.2288 155.192 17.7162 155.906 17.4599C156.62 17.2036 157.335 16.9473 158.287 16.9473C159.001 16.9473 159.954 17.2036 160.668 17.4599C161.144 17.7162 161.859 18.2288 162.335 18.7414C162.811 19.254 163.287 20.0229 163.525 20.5355C163.764 21.3045 164.002 22.0734 164.002 22.8423C164.002 23.6112 163.764 24.3801 163.525 25.149C163.287 25.918 162.811 26.4306 162.335 26.9432C161.859 27.4558 161.382 27.9684 160.668 28.2247C159.954 28.7373 159.239 28.7373 158.287 28.7373ZM155.191 22.8423C155.191 23.3549 155.192 23.8675 155.43 24.3801C155.668 24.8927 155.906 25.149 156.144 25.6616C156.382 26.1743 156.62 26.1743 157.096 26.4306C157.573 26.6869 157.811 26.6869 158.287 26.6869C158.763 26.6869 159.239 26.6869 159.478 26.4306C159.954 26.1743 160.192 25.918 160.43 25.6616C160.668 25.4053 160.906 24.8927 161.144 24.3801C161.382 23.8675 161.382 23.3549 161.382 22.8423C161.382 22.3297 161.382 21.8171 161.144 21.3045C160.906 20.7918 160.668 20.5355 160.43 20.0229C160.192 19.7666 159.716 19.5103 159.478 19.254C159.001 18.9977 158.763 18.9977 158.287 18.9977C157.811 18.9977 157.335 18.9977 157.096 19.254C156.858 19.5103 156.382 19.7666 156.144 20.0229C155.906 20.2792 155.668 20.7918 155.43 21.3045C155.192 21.8171 155.191 22.3297 155.191 22.8423Z" fill="#15172A"/>
<path d="M23.9895 8.74527C23.9895 7.72005 23.037 6.69482 22.0846 6.69482C21.1321 6.69482 20.1797 7.72005 20.1797 8.74527C20.1797 9.77049 21.1321 10.7957 22.0846 10.7957C23.037 10.7957 23.7514 9.77049 23.9895 8.74527Z" fill="#FF2853"/>
<path d="M41.3721 0.799805H19.2276C18.9895 0.799805 18.7514 0.799805 18.5133 1.05611L0.178584 19.5101C-0.0595281 20.0227 -0.0595281 20.5353 0.178584 21.0479L10.6555 32.838C11.1318 33.3506 11.608 33.3506 12.0842 32.838L14.7034 30.0186C15.1797 29.506 15.1797 28.9934 14.7034 28.4808L8.51252 21.3042C8.27441 20.7916 8.27441 20.279 8.51252 19.7664L18.5133 9.77049C18.5133 9.51419 18.2751 9.00158 18.2751 8.74527C18.2751 6.69483 19.9419 4.90069 21.8468 5.157C23.7517 5.157 25.4185 6.95113 25.1804 9.00158C25.1804 11.052 23.5136 12.8462 21.6087 12.5899C21.3706 12.3335 20.8944 12.3335 20.4182 12.0772C20.4182 12.0772 20.4182 12.3335 20.18 12.3335L12.3223 20.0227C11.8461 20.279 11.8461 21.0479 12.3223 21.3042L16.6083 26.4303C17.0846 26.943 17.5608 26.943 18.037 26.4303L42.0864 2.59394C42.8007 2.08133 42.3245 0.799805 41.3721 0.799805Z" fill="#FF2853"/>
<path d="M27.084 34.632C27.084 35.6572 28.0364 36.6824 28.9889 36.6824C29.9413 36.6824 30.8938 35.6572 30.8938 34.632C30.8938 33.6068 29.9413 32.5815 28.9889 32.5815C28.0364 32.5815 27.084 33.6068 27.084 34.632Z" fill="#FF2853"/>
<path d="M9.70281 42.5774H31.8473C32.0854 42.5774 32.3235 42.5774 32.5616 42.3211L50.8963 23.8671C51.3725 23.3545 51.3725 22.8419 50.8963 22.3293L40.4193 10.5392C39.9431 10.0266 39.4669 10.0266 38.9907 10.5392L36.3714 13.3586C35.8952 13.8712 35.8952 14.3838 36.3714 14.8964L42.5623 22.3293C42.8005 22.8419 42.8005 23.3545 42.5623 23.8671L32.5616 33.863C32.5616 34.1193 32.7997 34.632 32.7997 34.8883C32.7997 36.9387 31.1329 38.7328 29.228 38.4765C27.3231 38.4765 25.6563 36.6824 25.8945 34.632C26.1326 32.5815 27.5612 30.7874 29.4661 31.0437C29.9424 31.0437 30.4186 31.3 30.8948 31.3C30.8948 31.3 30.8948 31.0437 31.1329 31.0437L38.9907 23.3545C39.4669 22.8419 39.4669 22.3293 38.9907 21.8167L34.7046 16.6906C34.2284 16.178 33.7522 16.178 33.276 16.6906L8.98847 40.7833C8.27413 41.2959 8.75036 42.5774 9.70281 42.5774Z" fill="#FF2853"/>
<path d="M180.5 6V35" stroke="#939599" stroke-width="2"/>
<path d="M196.982 19.708H201.868V21.248H196.982V19.708ZM197.136 25H195.316V15.2H202.47V16.726H197.136V25ZM203.925 25V17.524H205.591V19.582L205.395 18.98C205.619 18.476 205.969 18.0933 206.445 17.832C206.931 17.5707 207.533 17.44 208.251 17.44V19.106C208.177 19.0873 208.107 19.078 208.041 19.078C207.976 19.0687 207.911 19.064 207.845 19.064C207.183 19.064 206.655 19.26 206.263 19.652C205.871 20.0347 205.675 20.6087 205.675 21.374V25H203.925ZM213.028 25.098C212.262 25.098 211.581 24.9347 210.984 24.608C210.386 24.272 209.915 23.8147 209.57 23.236C209.224 22.6573 209.052 21.9993 209.052 21.262C209.052 20.5153 209.224 19.8573 209.57 19.288C209.915 18.7093 210.386 18.2567 210.984 17.93C211.581 17.6033 212.262 17.44 213.028 17.44C213.802 17.44 214.488 17.6033 215.086 17.93C215.692 18.2567 216.164 18.7047 216.5 19.274C216.845 19.8433 217.018 20.506 217.018 21.262C217.018 21.9993 216.845 22.6573 216.5 23.236C216.164 23.8147 215.692 24.272 215.086 24.608C214.488 24.9347 213.802 25.098 213.028 25.098ZM213.028 23.6C213.457 23.6 213.84 23.5067 214.176 23.32C214.512 23.1333 214.773 22.8627 214.96 22.508C215.156 22.1533 215.254 21.738 215.254 21.262C215.254 20.7767 215.156 20.3613 214.96 20.016C214.773 19.6613 214.512 19.3907 214.176 19.204C213.84 19.0173 213.462 18.924 213.042 18.924C212.612 18.924 212.23 19.0173 211.894 19.204C211.567 19.3907 211.306 19.6613 211.11 20.016C210.914 20.3613 210.816 20.7767 210.816 21.262C210.816 21.738 210.914 22.1533 211.11 22.508C211.306 22.8627 211.567 23.1333 211.894 23.32C212.23 23.5067 212.608 23.6 213.028 23.6ZM222.933 17.44C223.53 17.44 224.062 17.5567 224.529 17.79C225.005 18.0233 225.378 18.3827 225.649 18.868C225.92 19.344 226.055 19.96 226.055 20.716V25H224.305V20.94C224.305 20.2773 224.146 19.7827 223.829 19.456C223.521 19.1293 223.087 18.966 222.527 18.966C222.116 18.966 221.752 19.05 221.435 19.218C221.118 19.386 220.87 19.638 220.693 19.974C220.525 20.3007 220.441 20.716 220.441 21.22V25H218.691V17.524H220.357V19.54L220.063 18.924C220.324 18.448 220.702 18.084 221.197 17.832C221.701 17.5707 222.28 17.44 222.933 17.44ZM231.089 25.098C230.268 25.098 229.633 24.888 229.185 24.468C228.737 24.0387 228.513 23.4087 228.513 22.578V15.872H230.263V22.536C230.263 22.8907 230.352 23.166 230.529 23.362C230.716 23.558 230.972 23.656 231.299 23.656C231.691 23.656 232.018 23.5533 232.279 23.348L232.769 24.594C232.564 24.762 232.312 24.888 232.013 24.972C231.714 25.056 231.406 25.098 231.089 25.098ZM227.281 18.98V17.58H232.265V18.98H227.281ZM237.476 25.098C236.646 25.098 235.918 24.9347 235.292 24.608C234.676 24.272 234.196 23.8147 233.85 23.236C233.514 22.6573 233.346 21.9993 233.346 21.262C233.346 20.5153 233.51 19.8573 233.836 19.288C234.172 18.7093 234.63 18.2567 235.208 17.93C235.796 17.6033 236.464 17.44 237.21 17.44C237.938 17.44 238.587 17.5987 239.156 17.916C239.726 18.2333 240.174 18.6813 240.5 19.26C240.827 19.8387 240.99 20.52 240.99 21.304C240.99 21.3787 240.986 21.4627 240.976 21.556C240.976 21.6493 240.972 21.738 240.962 21.822H234.732V20.66H240.038L239.352 21.024C239.362 20.5947 239.273 20.2167 239.086 19.89C238.9 19.5633 238.643 19.3067 238.316 19.12C237.999 18.9333 237.63 18.84 237.21 18.84C236.781 18.84 236.403 18.9333 236.076 19.12C235.759 19.3067 235.507 19.568 235.32 19.904C235.143 20.2307 235.054 20.618 235.054 21.066V21.346C235.054 21.794 235.157 22.1907 235.362 22.536C235.568 22.8813 235.857 23.1473 236.23 23.334C236.604 23.5207 237.033 23.614 237.518 23.614C237.938 23.614 238.316 23.5487 238.652 23.418C238.988 23.2873 239.287 23.082 239.548 22.802L240.486 23.88C240.15 24.272 239.726 24.5753 239.212 24.79C238.708 24.9953 238.13 25.098 237.476 25.098ZM246.913 17.44C247.511 17.44 248.043 17.5567 248.509 17.79C248.985 18.0233 249.359 18.3827 249.629 18.868C249.9 19.344 250.035 19.96 250.035 20.716V25H248.285V20.94C248.285 20.2773 248.127 19.7827 247.809 19.456C247.501 19.1293 247.067 18.966 246.507 18.966C246.097 18.966 245.733 19.05 245.415 19.218C245.098 19.386 244.851 19.638 244.673 19.974C244.505 20.3007 244.421 20.716 244.421 21.22V25H242.671V17.524H244.337V19.54L244.043 18.924C244.305 18.448 244.683 18.084 245.177 17.832C245.681 17.5707 246.26 17.44 246.913 17.44ZM255.433 25.098C254.714 25.098 254.066 24.9393 253.487 24.622C252.918 24.2953 252.47 23.8473 252.143 23.278C251.816 22.7087 251.653 22.0367 251.653 21.262C251.653 20.4873 251.816 19.8153 252.143 19.246C252.47 18.6767 252.918 18.2333 253.487 17.916C254.066 17.5987 254.714 17.44 255.433 17.44C256.058 17.44 256.618 17.58 257.113 17.86C257.608 18.1307 258 18.546 258.289 19.106C258.578 19.666 258.723 20.3847 258.723 21.262C258.723 22.13 258.583 22.8487 258.303 23.418C258.023 23.978 257.636 24.398 257.141 24.678C256.646 24.958 256.077 25.098 255.433 25.098ZM255.643 23.6C256.063 23.6 256.436 23.5067 256.763 23.32C257.099 23.1333 257.365 22.8627 257.561 22.508C257.766 22.1533 257.869 21.738 257.869 21.262C257.869 20.7767 257.766 20.3613 257.561 20.016C257.365 19.6613 257.099 19.3907 256.763 19.204C256.436 19.0173 256.063 18.924 255.643 18.924C255.223 18.924 254.845 19.0173 254.509 19.204C254.182 19.3907 253.916 19.6613 253.711 20.016C253.515 20.3613 253.417 20.7767 253.417 21.262C253.417 21.738 253.515 22.1533 253.711 22.508C253.916 22.8627 254.182 23.1333 254.509 23.32C254.845 23.5067 255.223 23.6 255.643 23.6ZM257.911 25V23.236L257.981 21.248L257.841 19.26V14.612H259.577V25H257.911ZM265.918 25V15.2H270.202C271.266 15.2 272.199 15.4053 273.002 15.816C273.804 16.2267 274.43 16.796 274.878 17.524C275.326 18.252 275.55 19.1107 275.55 20.1C275.55 21.08 275.326 21.9387 274.878 22.676C274.43 23.404 273.804 23.9733 273.002 24.384C272.199 24.7947 271.266 25 270.202 25H265.918ZM267.738 23.46H270.118C270.855 23.46 271.49 23.32 272.022 23.04C272.563 22.76 272.978 22.368 273.268 21.864C273.566 21.36 273.716 20.772 273.716 20.1C273.716 19.4187 273.566 18.8307 273.268 18.336C272.978 17.832 272.563 17.44 272.022 17.16C271.49 16.88 270.855 16.74 270.118 16.74H267.738V23.46ZM280.83 25.098C279.999 25.098 279.271 24.9347 278.646 24.608C278.03 24.272 277.549 23.8147 277.204 23.236C276.868 22.6573 276.7 21.9993 276.7 21.262C276.7 20.5153 276.863 19.8573 277.19 19.288C277.526 18.7093 277.983 18.2567 278.562 17.93C279.15 17.6033 279.817 17.44 280.564 17.44C281.292 17.44 281.941 17.5987 282.51 17.916C283.079 18.2333 283.527 18.6813 283.854 19.26C284.181 19.8387 284.344 20.52 284.344 21.304C284.344 21.3787 284.339 21.4627 284.33 21.556C284.33 21.6493 284.325 21.738 284.316 21.822H278.086V20.66H283.392L282.706 21.024C282.715 20.5947 282.627 20.2167 282.44 19.89C282.253 19.5633 281.997 19.3067 281.67 19.12C281.353 18.9333 280.984 18.84 280.564 18.84C280.135 18.84 279.757 18.9333 279.43 19.12C279.113 19.3067 278.861 19.568 278.674 19.904C278.497 20.2307 278.408 20.618 278.408 21.066V21.346C278.408 21.794 278.511 22.1907 278.716 22.536C278.921 22.8813 279.211 23.1473 279.584 23.334C279.957 23.5207 280.387 23.614 280.872 23.614C281.292 23.614 281.67 23.5487 282.006 23.418C282.342 23.2873 282.641 23.082 282.902 22.802L283.84 23.88C283.504 24.272 283.079 24.5753 282.566 24.79C282.062 24.9953 281.483 25.098 280.83 25.098ZM287.876 25L284.67 17.524H286.49L289.248 24.118H288.352L291.208 17.524H292.888L289.682 25H287.876ZM297.291 25.098C296.46 25.098 295.732 24.9347 295.107 24.608C294.491 24.272 294.01 23.8147 293.665 23.236C293.329 22.6573 293.161 21.9993 293.161 21.262C293.161 20.5153 293.324 19.8573 293.651 19.288C293.987 18.7093 294.444 18.2567 295.023 17.93C295.611 17.6033 296.278 17.44 297.025 17.44C297.753 17.44 298.402 17.5987 298.971 17.916C299.54 18.2333 299.988 18.6813 300.315 19.26C300.642 19.8387 300.805 20.52 300.805 21.304C300.805 21.3787 300.8 21.4627 300.791 21.556C300.791 21.6493 300.786 21.738 300.777 21.822H294.547V20.66H299.853L299.167 21.024C299.176 20.5947 299.088 20.2167 298.901 19.89C298.714 19.5633 298.458 19.3067 298.131 19.12C297.814 18.9333 297.445 18.84 297.025 18.84C296.596 18.84 296.218 18.9333 295.891 19.12C295.574 19.3067 295.322 19.568 295.135 19.904C294.958 20.2307 294.869 20.618 294.869 21.066V21.346C294.869 21.794 294.972 22.1907 295.177 22.536C295.382 22.8813 295.672 23.1473 296.045 23.334C296.418 23.5207 296.848 23.614 297.333 23.614C297.753 23.614 298.131 23.5487 298.467 23.418C298.803 23.2873 299.102 23.082 299.363 22.802L300.301 23.88C299.965 24.272 299.54 24.5753 299.027 24.79C298.523 24.9953 297.944 25.098 297.291 25.098ZM302.486 25V14.612H304.236V25H302.486ZM309.893 25.098C309.127 25.098 308.446 24.9347 307.849 24.608C307.251 24.272 306.78 23.8147 306.435 23.236C306.089 22.6573 305.917 21.9993 305.917 21.262C305.917 20.5153 306.089 19.8573 306.435 19.288C306.78 18.7093 307.251 18.2567 307.849 17.93C308.446 17.6033 309.127 17.44 309.893 17.44C310.667 17.44 311.353 17.6033 311.951 17.93C312.557 18.2567 313.029 18.7047 313.365 19.274C313.71 19.8433 313.883 20.506 313.883 21.262C313.883 21.9993 313.71 22.6573 313.365 23.236C313.029 23.8147 312.557 24.272 311.951 24.608C311.353 24.9347 310.667 25.098 309.893 25.098ZM309.893 23.6C310.322 23.6 310.705 23.5067 311.041 23.32C311.377 23.1333 311.638 22.8627 311.825 22.508C312.021 22.1533 312.119 21.738 312.119 21.262C312.119 20.7767 312.021 20.3613 311.825 20.016C311.638 19.6613 311.377 19.3907 311.041 19.204C310.705 19.0173 310.327 18.924 309.907 18.924C309.477 18.924 309.095 19.0173 308.759 19.204C308.432 19.3907 308.171 19.6613 307.975 20.016C307.779 20.3613 307.681 20.7767 307.681 21.262C307.681 21.738 307.779 22.1533 307.975 22.508C308.171 22.8627 308.432 23.1333 308.759 23.32C309.095 23.5067 309.473 23.6 309.893 23.6ZM319.7 25.098C319.094 25.098 318.538 24.958 318.034 24.678C317.54 24.398 317.143 23.978 316.844 23.418C316.555 22.8487 316.41 22.13 316.41 21.262C316.41 20.3847 316.55 19.666 316.83 19.106C317.12 18.546 317.512 18.1307 318.006 17.86C318.501 17.58 319.066 17.44 319.7 17.44C320.438 17.44 321.086 17.5987 321.646 17.916C322.216 18.2333 322.664 18.6767 322.99 19.246C323.326 19.8153 323.494 20.4873 323.494 21.262C323.494 22.0367 323.326 22.7133 322.99 23.292C322.664 23.8613 322.216 24.3047 321.646 24.622C321.086 24.9393 320.438 25.098 319.7 25.098ZM315.556 27.716V17.524H317.222V19.288L317.166 21.276L317.306 23.264V27.716H315.556ZM319.504 23.6C319.924 23.6 320.298 23.5067 320.624 23.32C320.96 23.1333 321.226 22.8627 321.422 22.508C321.618 22.1533 321.716 21.738 321.716 21.262C321.716 20.7767 321.618 20.3613 321.422 20.016C321.226 19.6613 320.96 19.3907 320.624 19.204C320.298 19.0173 319.924 18.924 319.504 18.924C319.084 18.924 318.706 19.0173 318.37 19.204C318.034 19.3907 317.768 19.6613 317.572 20.016C317.376 20.3613 317.278 20.7767 317.278 21.262C317.278 21.738 317.376 22.1533 317.572 22.508C317.768 22.8627 318.034 23.1333 318.37 23.32C318.706 23.5067 319.084 23.6 319.504 23.6ZM328.668 25.098C327.837 25.098 327.109 24.9347 326.484 24.608C325.868 24.272 325.387 23.8147 325.042 23.236C324.706 22.6573 324.538 21.9993 324.538 21.262C324.538 20.5153 324.701 19.8573 325.028 19.288C325.364 18.7093 325.821 18.2567 326.4 17.93C326.988 17.6033 327.655 17.44 328.402 17.44C329.13 17.44 329.779 17.5987 330.348 17.916C330.917 18.2333 331.365 18.6813 331.692 19.26C332.019 19.8387 332.182 20.52 332.182 21.304C332.182 21.3787 332.177 21.4627 332.168 21.556C332.168 21.6493 332.163 21.738 332.154 21.822H325.924V20.66H331.23L330.544 21.024C330.553 20.5947 330.465 20.2167 330.278 19.89C330.091 19.5633 329.835 19.3067 329.508 19.12C329.191 18.9333 328.822 18.84 328.402 18.84C327.973 18.84 327.595 18.9333 327.268 19.12C326.951 19.3067 326.699 19.568 326.512 19.904C326.335 20.2307 326.246 20.618 326.246 21.066V21.346C326.246 21.794 326.349 22.1907 326.554 22.536C326.759 22.8813 327.049 23.1473 327.422 23.334C327.795 23.5207 328.225 23.614 328.71 23.614C329.13 23.614 329.508 23.5487 329.844 23.418C330.18 23.2873 330.479 23.082 330.74 22.802L331.678 23.88C331.342 24.272 330.917 24.5753 330.404 24.79C329.9 24.9953 329.321 25.098 328.668 25.098ZM333.863 25V17.524H335.529V19.582L335.333 18.98C335.557 18.476 335.907 18.0933 336.383 17.832C336.868 17.5707 337.47 17.44 338.189 17.44V19.106C338.114 19.0873 338.044 19.078 337.979 19.078C337.914 19.0687 337.848 19.064 337.783 19.064C337.12 19.064 336.593 19.26 336.201 19.652C335.809 20.0347 335.613 20.6087 335.613 21.374V25H333.863ZM348.315 25.14C347.568 25.14 346.873 25.0187 346.229 24.776C345.594 24.524 345.039 24.174 344.563 23.726C344.096 23.2687 343.732 22.732 343.471 22.116C343.21 21.5 343.079 20.828 343.079 20.1C343.079 19.372 343.21 18.7 343.471 18.084C343.732 17.468 344.101 16.936 344.577 16.488C345.053 16.0307 345.608 15.6807 346.243 15.438C346.878 15.186 347.573 15.06 348.329 15.06C349.132 15.06 349.864 15.2 350.527 15.48C351.19 15.7507 351.75 16.1567 352.207 16.698L351.031 17.804C350.676 17.4213 350.28 17.1367 349.841 16.95C349.402 16.754 348.926 16.656 348.413 16.656C347.9 16.656 347.428 16.74 346.999 16.908C346.579 17.076 346.21 17.314 345.893 17.622C345.585 17.93 345.342 18.294 345.165 18.714C344.997 19.134 344.913 19.596 344.913 20.1C344.913 20.604 344.997 21.066 345.165 21.486C345.342 21.906 345.585 22.27 345.893 22.578C346.21 22.886 346.579 23.124 346.999 23.292C347.428 23.46 347.9 23.544 348.413 23.544C348.926 23.544 349.402 23.4507 349.841 23.264C350.28 23.068 350.676 22.774 351.031 22.382L352.207 23.502C351.75 24.034 351.19 24.44 350.527 24.72C349.864 25 349.127 25.14 348.315 25.14ZM358.025 17.44C358.622 17.44 359.154 17.5567 359.621 17.79C360.097 18.0233 360.47 18.3827 360.741 18.868C361.011 19.344 361.147 19.96 361.147 20.716V25H359.397V20.94C359.397 20.2773 359.238 19.7827 358.921 19.456C358.613 19.1293 358.179 18.966 357.619 18.966C357.208 18.966 356.844 19.05 356.527 19.218C356.209 19.386 355.962 19.638 355.785 19.974C355.617 20.3007 355.533 20.716 355.533 21.22V25H353.783V14.612H355.533V19.54L355.155 18.924C355.416 18.448 355.794 18.084 356.289 17.832C356.793 17.5707 357.371 17.44 358.025 17.44ZM367.973 25V23.488L367.875 23.166V20.52C367.875 20.0067 367.721 19.61 367.413 19.33C367.105 19.0407 366.638 18.896 366.013 18.896C365.593 18.896 365.177 18.9613 364.767 19.092C364.365 19.2227 364.025 19.4047 363.745 19.638L363.059 18.364C363.46 18.056 363.936 17.8273 364.487 17.678C365.047 17.5193 365.625 17.44 366.223 17.44C367.305 17.44 368.141 17.7013 368.729 18.224C369.326 18.7373 369.625 19.5353 369.625 20.618V25H367.973ZM365.621 25.098C365.061 25.098 364.571 25.0047 364.151 24.818C363.731 24.622 363.404 24.356 363.171 24.02C362.947 23.6747 362.835 23.2873 362.835 22.858C362.835 22.438 362.933 22.06 363.129 21.724C363.334 21.388 363.665 21.122 364.123 20.926C364.58 20.73 365.187 20.632 365.943 20.632H368.113V21.794H366.069C365.471 21.794 365.07 21.892 364.865 22.088C364.659 22.2747 364.557 22.508 364.557 22.788C364.557 23.1053 364.683 23.3573 364.935 23.544C365.187 23.7307 365.537 23.824 365.985 23.824C366.414 23.824 366.797 23.726 367.133 23.53C367.478 23.334 367.725 23.0447 367.875 22.662L368.169 23.712C368.001 24.1507 367.697 24.4913 367.259 24.734C366.829 24.9767 366.283 25.098 365.621 25.098ZM371.871 25V14.612H373.621V25H371.871ZM375.918 25V14.612H377.668V25H375.918ZM383.478 25.098C382.648 25.098 381.92 24.9347 381.294 24.608C380.678 24.272 380.198 23.8147 379.852 23.236C379.516 22.6573 379.348 21.9993 379.348 21.262C379.348 20.5153 379.512 19.8573 379.838 19.288C380.174 18.7093 380.632 18.2567 381.21 17.93C381.798 17.6033 382.466 17.44 383.212 17.44C383.94 17.44 384.589 17.5987 385.158 17.916C385.728 18.2333 386.176 18.6813 386.502 19.26C386.829 19.8387 386.992 20.52 386.992 21.304C386.992 21.3787 386.988 21.4627 386.978 21.556C386.978 21.6493 386.974 21.738 386.964 21.822H380.734V20.66H386.04L385.354 21.024C385.364 20.5947 385.275 20.2167 385.088 19.89C384.902 19.5633 384.645 19.3067 384.318 19.12C384.001 18.9333 383.632 18.84 383.212 18.84C382.783 18.84 382.405 18.9333 382.078 19.12C381.761 19.3067 381.509 19.568 381.322 19.904C381.145 20.2307 381.056 20.618 381.056 21.066V21.346C381.056 21.794 381.159 22.1907 381.364 22.536C381.57 22.8813 381.859 23.1473 382.232 23.334C382.606 23.5207 383.035 23.614 383.52 23.614C383.94 23.614 384.318 23.5487 384.654 23.418C384.99 23.2873 385.289 23.082 385.55 22.802L386.488 23.88C386.152 24.272 385.728 24.5753 385.214 24.79C384.71 24.9953 384.132 25.098 383.478 25.098ZM392.915 17.44C393.513 17.44 394.045 17.5567 394.511 17.79C394.987 18.0233 395.361 18.3827 395.631 18.868C395.902 19.344 396.037 19.96 396.037 20.716V25H394.287V20.94C394.287 20.2773 394.129 19.7827 393.811 19.456C393.503 19.1293 393.069 18.966 392.509 18.966C392.099 18.966 391.735 19.05 391.417 19.218C391.1 19.386 390.853 19.638 390.675 19.974C390.507 20.3007 390.423 20.716 390.423 21.22V25H388.673V17.524H390.339V19.54L390.045 18.924C390.307 18.448 390.685 18.084 391.179 17.832C391.683 17.5707 392.262 17.44 392.915 17.44ZM401.659 27.814C400.968 27.814 400.292 27.7207 399.629 27.534C398.976 27.3567 398.439 27.0953 398.019 26.75L398.803 25.434C399.13 25.7047 399.54 25.9193 400.035 26.078C400.539 26.246 401.048 26.33 401.561 26.33C402.382 26.33 402.984 26.1387 403.367 25.756C403.75 25.3827 403.941 24.818 403.941 24.062V22.732L404.081 21.038L404.025 19.344V17.524H405.691V23.866C405.691 25.2193 405.346 26.2133 404.655 26.848C403.964 27.492 402.966 27.814 401.659 27.814ZM401.435 24.664C400.726 24.664 400.082 24.5147 399.503 24.216C398.934 23.908 398.481 23.4833 398.145 22.942C397.818 22.4007 397.655 21.766 397.655 21.038C397.655 20.3193 397.818 19.6893 398.145 19.148C398.481 18.6067 398.934 18.1867 399.503 17.888C400.082 17.5893 400.726 17.44 401.435 17.44C402.07 17.44 402.639 17.566 403.143 17.818C403.647 18.07 404.048 18.462 404.347 18.994C404.655 19.526 404.809 20.2073 404.809 21.038C404.809 21.8687 404.655 22.5547 404.347 23.096C404.048 23.628 403.647 24.0247 403.143 24.286C402.639 24.538 402.07 24.664 401.435 24.664ZM401.701 23.18C402.14 23.18 402.532 23.0913 402.877 22.914C403.222 22.7273 403.488 22.4753 403.675 22.158C403.871 21.8313 403.969 21.458 403.969 21.038C403.969 20.618 403.871 20.2493 403.675 19.932C403.488 19.6053 403.222 19.358 402.877 19.19C402.532 19.0127 402.14 18.924 401.701 18.924C401.262 18.924 400.866 19.0127 400.511 19.19C400.166 19.358 399.895 19.6053 399.699 19.932C399.512 20.2493 399.419 20.618 399.419 21.038C399.419 21.458 399.512 21.8313 399.699 22.158C399.895 22.4753 400.166 22.7273 400.511 22.914C400.866 23.0913 401.262 23.18 401.701 23.18ZM411.506 25.098C410.675 25.098 409.947 24.9347 409.322 24.608C408.706 24.272 408.225 23.8147 407.88 23.236C407.544 22.6573 407.376 21.9993 407.376 21.262C407.376 20.5153 407.539 19.8573 407.866 19.288C408.202 18.7093 408.659 18.2567 409.238 17.93C409.826 17.6033 410.493 17.44 411.24 17.44C411.968 17.44 412.616 17.5987 413.186 17.916C413.755 18.2333 414.203 18.6813 414.53 19.26C414.856 19.8387 415.02 20.52 415.02 21.304C415.02 21.3787 415.015 21.4627 415.006 21.556C415.006 21.6493 415.001 21.738 414.992 21.822H408.762V20.66H414.068L413.382 21.024C413.391 20.5947 413.302 20.2167 413.116 19.89C412.929 19.5633 412.672 19.3067 412.346 19.12C412.028 18.9333 411.66 18.84 411.24 18.84C410.81 18.84 410.432 18.9333 410.106 19.12C409.788 19.3067 409.536 19.568 409.35 19.904C409.172 20.2307 409.084 20.618 409.084 21.066V21.346C409.084 21.794 409.186 22.1907 409.392 22.536C409.597 22.8813 409.886 23.1473 410.26 23.334C410.633 23.5207 411.062 23.614 411.548 23.614C411.968 23.614 412.346 23.5487 412.682 23.418C413.018 23.2873 413.316 23.082 413.578 22.802L414.516 23.88C414.18 24.272 413.755 24.5753 413.242 24.79C412.738 24.9953 412.159 25.098 411.506 25.098Z" fill="#15172A"/>
</svg>
